#!OML:ASF I:\Actors\actors\Patient Classification 2\Patient 1\Session 1\actor1.ASF
:FULLY-SPECIFIED
:DEGREES
218
root -0.838334 17.0004 7.11888 -8.80134 -44.6074 4.7195
lowerback 7.63684 -8.85089 14.5754
upperback -1.15971 -10.0804 11.8561
thorax -5.80389 -5.31496 6.15927
lowerneck -13.8161 18.0374 20.0734
upperneck 6.97131 23.639 -19.8862
head 9.28392 10.6085 -6.04874
rclavicle 8.26944e-014 4.77083e-014
rhumerus -21.5296 -44.8644 10.0449
rradius 104.808
rwrist -22.8991
rhand -31.4541 -17.036
rfingers 7.12502
rthumb -4.72167 -46.9634
lclavicle 8.26944e-014 4.77083e-014
lhumerus -18.5956 -22.8421 29.865
lradius 34.3389
lwrist -3.48846
lhand -7.4538 -28.2906
lfingers 7.12502
lthumb 18.4343 0.85597
rfemur 35.1057 29.7106 12.7304
rtibia -46.5226
rfoot 12.0735 -13.4777
rtoes -14.4188
lfemur 43.3858 30.6635 -17.1954
ltibia -33.8359
lfoot 0.658017 21.8686
ltoes -15.2231
219
root -0.830025 16.9853 7.14658 -8.55944 -44.8112 4.48224
lowerback 7.58863 -9.11963 14.5797
upperback -1.40505 -10.4124 12.1847
thorax -5.98622 -5.48804 6.60429
lowerneck -12.5439 18.1304 19.492
upperneck 6.49893 24.0525 -19.893
head 8.92351 10.8885 -5.96953
rclavicle -2.62396e-014 -1.08139e-013
rhumerus -20.3404 -45.2319 10.4057
rradius 106.048
rwrist -22.6408
rhand -31.4866 -15.9506
rfingers 7.12502
rthumb -4.75297 -45.8773
lclavicle -2.62396e-014 -1.08139e-013
lhumerus -22.93 -23.0722 30.8415
lradius 34.4889
lwrist -3.45372
lhand -8.35338 -28.0851
lfingers 7.12502
lthumb 17.5688 1.14106
rfemur 35.1676 29.8351 12.8411
rtibia -46.7758
rfoot 12.0603 -13.6172
rtoes -13.9824
lfemur 43.5633 30.8499 -17.0627
ltibia -34.1461
lfoot 0.874215 21.9575
ltoes -15.2622
220
root -0.819603 16.9699 7.16567 -8.42285 -44.9139 4.35538
lowerback 7.55205 -9.17229 14.5893
upperback -1.55247 -10.4646 12.1898
thorax -6.12991 -5.51861 6.63189
lowerneck -11.7311 18.1458 19.6449
upperneck 6.22737 24.1818 -20.0267
head 8.76273 11.0085 -6.06221
rclavicle -9.14409e-014 -4.77083e-014
rhumerus -21.3778 -45.5592 12.5798
rradius 107.549
rwrist -23.1903
rhand -31.8537 -14.6009
rfingers 7.12502
rthumb -5.10749 -44.5194
lclavicle -9.14409e-014 -4.77083e-014
lhumerus -26.3129 -23.8067 31.3781
lradius 34.7562
lwrist -2.9047
lhand -8.17239 -28.5027
lfingers 7.12502
lthumb 17.743 0.707839
rfemur 35.2632 29.9072 12.9022
rtibia -47.0373
rfoot 12.0963 -13.7768
rtoes -13.3662
lfemur 43.7813 30.9963 -16.997
ltibia -34.5554
lfoot 1.11695 21.9616
ltoes -14.8396
221
root -0.814832 16.9495 7.18565 -8.32985 -45.01 4.20494
lowerback 7.43888 -9.14131 14.6452
upperback -1.53592 -10.4478 12.1168
thorax -6.07196 -5.5113 6.49581
lowerneck -11.5622 18.227 19.8421
upperneck 6.19864 24.3037 -20.0871
head 8.78222 11.0773 -6.08886
rclavicle -4.05521e-014 -1.59028e-014
rhumerus -21.9374 -46.1703 13.7933
rradius 108.883
rwrist -22.9268
rhand -32.2888 -13.9757
rfingers 7.12502
rthumb -5.52753 -43.8836
lclavicle -4.05521e-014 -1.59028e-014
lhumerus -29.3955 -24.6075 31.9551
lradius 34.96
lwrist -2.45398
lhand -8.44305 -28.5505
lfingers 7.12502
lthumb 17.4825 0.683339
rfemur 35.513 30.0571 13.0676
rtibia -47.3425
rfoot 12.2224 -13.8956
rtoes -13.282
lfemur 44.2 31.2786 -16.7746
ltibia -35.0858
lfoot 1.55277 21.789
ltoes -14.5733
222
root -0.814162 16.9276 7.20395 -8.12929 -45.0325 3.85275
lowerback 7.32331 -9.0918 14.7994
upperback -1.54312 -10.3926 12.0546
thorax -6.05427 -5.48845 6.32202
lowerneck -11.2781 18.2889 20.0767
upperneck 6.1153 24.4098 -20.1711
head 8.77013 11.1478 -6.14064
rclavicle 6.87795e-014 7.95139e-014
rhumerus -22.3063 -46.5962 14.7376
rradius 110.155
rwrist -22.3346
rhand -32.7562 -14.2016
rfingers 7.12502
rthumb -5.97886 -44.0973
lclavicle 6.87795e-014 7.95139e-014
lhumerus -32.5438 -25.6882 32.8398
lradius 35.1292
lwrist -2.02559
lhand -8.75536 -28.7131
lfingers 7.12502
lthumb 17.1819 0.547274
rfemur 35.8627 30.1943 13.4623
rtibia -47.6751
rfoot 12.3954 -14.0456
rtoes -13.7772
lfemur 44.7018 31.5214 -16.3321
ltibia -35.6589
lfoot 2.00859 21.5952
ltoes -14.2182
223
root -0.814681 16.908 7.22111 -8.03233 -44.8406 3.61753
lowerback 7.18332 -9.07706 14.8395
upperback -1.64359 -10.3816 11.9679
thorax -6.111 -5.48608 6.19437
lowerneck -10.5357 18.2708 20.3728
upperneck 5.72736 24.4585 -20.4112
head 8.60371 11.2242 -6.30232
rclavicle -5.24792e-014 1.04958e-013
rhumerus -22.7815 -46.8031 15.8878
rradius 111.447
rwrist -21.7792
rhand -33.2772 -14.92
rfingers 7.12502
rthumb -6.48182 -44.8008
lclavicle -5.24792e-014 1.04958e-013
lhumerus -35.9962 -26.9622 34.1452
lradius 35.4239
lwrist -1.25506
lhand -9.00448 -28.9393
lfingers 7.12502
lthumb 16.9421 0.341744
rfemur 36.3097 30.1725 13.7779
rtibia -48.0316
rfoot 12.5272 -14.2905
rtoes -14.0909
lfemur 45.2207 31.6409 -15.9718
ltibia -36.2696
lfoot 2.46122 21.3619
ltoes -14.0796
